<?xml version="1.0" encoding="UTF-8" standalone="no"?>
<svg
   width="240"
   height="240"
   version="1.1"
   id="svg40"
   sodipodi:docname="drone.svg"
   inkscape:version="1.3.2 (091e20e, 2023-11-25, custom)"
   xml:space="preserve"
   xmlns:inkscape="http://www.inkscape.org/namespaces/inkscape"
   xmlns:sodipodi="http://sodipodi.sourceforge.net/DTD/sodipodi-0.dtd"
   xmlns="http://www.w3.org/2000/svg"
   xmlns:svg="http://www.w3.org/2000/svg"><defs
     id="defs40"><filter
       style="color-interpolation-filters:sRGB;"
       inkscape:label="Drop Shadow"
       id="filter6"
       x="-0.056858902"
       y="-0.056610551"
       width="1.1137178"
       height="1.1132211"><feFlood
         result="flood"
         in="SourceGraphic"
         flood-opacity="1.000000"
         flood-color="rgb(58,63,94)"
         id="feFlood5" /><feGaussianBlur
         result="blur"
         in="SourceGraphic"
         stdDeviation="5.000000"
         id="feGaussianBlur5" /><feOffset
         result="offset"
         in="blur"
         dx="0.000000"
         dy="0.000000"
         id="feOffset5" /><feComposite
         result="comp1"
         operator="out"
         in="flood"
         in2="offset"
         id="feComposite5" /><feComposite
         result="comp2"
         operator="atop"
         in="comp1"
         in2="SourceGraphic"
         id="feComposite6" /></filter></defs><sodipodi:namedview
     id="namedview40"
     pagecolor="#505050"
     bordercolor="#eeeeee"
     borderopacity="1"
     inkscape:showpageshadow="0"
     inkscape:pageopacity="0"
     inkscape:pagecheckerboard="0"
     inkscape:deskcolor="#505050"
     inkscape:zoom="2.3747003"
     inkscape:cx="100.22317"
     inkscape:cy="63.376419"
     inkscape:window-width="1920"
     inkscape:window-height="1017"
     inkscape:window-x="-8"
     inkscape:window-y="-8"
     inkscape:window-maximized="1"
     inkscape:current-layer="svg40" /><path
     style="fill:#1b1f21;stroke:none"
     d="M0 0v240h240V0H0z"
     id="path1" /><path
     style="fill:#e64539;fill-opacity:1;filter:url(#filter6)"
     d="m 91.384375,225.77467 c -1.171726,-0.82071 -1.21483,-1.74659 -0.305259,-6.55716 1.162829,-6.15001 1.431228,-6.84832 2.763491,-7.19 3.058859,-0.78449 5.836772,0.18856 5.836772,2.04449 0,1.45983 -3.561704,11.30244 -4.283825,11.83816 -1.017244,0.75467 -2.827605,0.69352 -4.011179,-0.13549 z m 8.590735,-15.81256 c -1.009119,-0.76586 -1.831027,-0.94269 -4.259363,-0.9164 l -3.008961,0.0326 -0.349088,-1.7996 c -0.378218,-1.94976 -0.399563,-7.69905 -0.02996,-8.06866 0.124991,-0.12499 2.731813,-0.33542 5.792937,-0.46762 l 5.56568,-0.24036 -0.21988,1.72151 c -0.12094,0.94684 -0.33704,2.81485 -0.48022,4.15116 -0.26754,2.49692 -1.04843,5.74221 -1.5039,6.25001 -0.14127,0.1575 -0.81953,-0.14068 -1.50725,-0.66263 z m -8.253307,-15.41638 c -0.0033,-0.78963 -0.125897,-1.88297 -0.272399,-2.42964 l -0.266366,-0.99394 h 6.65276 c 6.344072,0 6.684202,-0.0449 7.330282,-0.96729 0.37263,-0.53201 0.82115,-0.82366 0.9967,-0.64811 0.41205,0.41205 -0.55812,5.05988 -1.22354,5.86166 -0.39077,0.47084 -1.98182,0.61302 -6.860085,0.61302 h -6.35132 z M 203.04946,191.7776 c -7.40229,-1.59487 -8.26613,-1.88844 -8.53041,-2.89906 -0.26045,-0.99596 0.67298,-5.10459 1.2955,-5.70233 0.58509,-0.5618 13.79828,3.75706 15.02756,4.9119 1.20637,1.13333 1.37171,3.08337 0.34821,4.10687 -0.89118,0.89118 -2.43467,0.81205 -8.14086,-0.41738 z m -13.99256,-3.18131 c -1.76901,-0.22159 -10.08866,-7.59228 -9.35038,-8.28384 0.083,-0.0778 2.42491,-1.15678 5.20421,-2.39782 3.812,-1.70216 5.14318,-2.12047 5.41927,-1.70293 0.20129,0.30442 0.96558,1.58341 1.69841,2.84219 l 1.33243,2.2887 -0.89847,2.66709 c -0.49416,1.46689 -0.89848,3.17032 -0.89848,3.78539 0,0.63786 -0.23723,1.08795 -0.55219,1.04762 -0.3037,-0.0389 -1.18336,-0.14976 -1.9548,-0.2464 z M 88.764658,187.91945 c -0.231463,-0.30371 -1.064426,-2.28759 -1.851028,-4.40862 -1.141845,-3.07893 -1.417394,-4.45939 -1.366739,-6.84717 0.102555,-4.83427 0.0858,-4.9097 -1.242845,-5.59677 -2.183584,-1.12918 -2.409444,-2.27305 -2.625532,-13.29705 -0.197919,-10.09703 -0.205921,-10.16676 -1.284803,-11.19563 -1.667084,-1.58982 -1.272267,-3.16937 1.063379,-4.25428 1.032596,-0.47964 1.877448,-1.1257 1.877448,-1.43569 0,-0.43707 1.870001,-0.56363 8.327969,-0.56363 7.908549,0 8.401633,-0.05 9.790563,-0.99394 2.26198,-1.53718 3.29111,-3.95096 3.24792,-7.61786 -0.0211,-1.79399 -0.33951,-3.80906 -0.75754,-4.79446 -0.69466,-1.63746 -0.68722,-1.72726 0.20256,-2.44776 l 0.92367,-0.74794 -1.20223,-6.95989 c -0.66123,-3.82793 -1.1232,-7.03892 -1.02661,-7.13552 0.0966,-0.0966 1.0648,0.0295 2.15155,0.28023 2.40025,0.55377 5.68916,0.273 8.98987,-0.76746 2.30825,-0.72761 2.51544,-0.72979 3.28369,-0.0345 0.45099,0.40814 1.06011,1.48666 1.3536,2.39672 0.87213,2.70432 1.12763,9.35594 0.48931,12.73889 -0.54193,2.87211 -0.73895,3.2069 -3.743,6.3605 -2.52169,2.64722 -3.22909,3.69232 -3.45484,5.1041 -0.39288,2.45693 -2.55521,4.46034 -5.87518,5.44338 -2.15118,0.63697 -2.62838,0.95631 -2.75644,1.8446 -0.0852,0.59086 -0.54591,1.62343 -1.02383,2.29461 -0.84193,1.18238 -0.85451,1.60164 -0.4044,13.47924 0.37368,9.86061 0.63956,12.90708 1.35905,15.57205 1.40204,5.19308 1.62905,9.64269 0.61743,12.10228 l -0.83513,2.03048 -6.903508,0.002 c -5.005509,0.001 -7.019215,-0.15016 -7.324354,-0.55053 z m -52.681072,-6.42191 c -4.951341,-0.13597 -6.207798,-0.63934 -6.194333,-2.48161 0.01518,-2.07642 1.290463,-2.72023 6.17777,-3.11874 2.065193,-0.1684 4.543094,-0.50843 5.506446,-0.75563 1.706262,-0.43783 1.795484,-0.40236 3.45068,1.3721 1.364511,1.46283 1.672044,2.10194 1.561593,3.24531 -0.136929,1.41747 -0.150195,1.42472 -3.008927,1.64463 -1.579265,0.12148 -4.951218,0.16375 -7.493229,0.0939 z m 13.236011,-1.88999 c 0,-2.01417 -0.498495,-3.19635 -2.050996,-4.86395 -1.056421,-1.13474 -1.056941,-1.14043 -0.17675,-1.937 0.857217,-0.77577 1.017431,-0.74379 5.53104,1.10392 2.556538,1.04656 4.648251,2.03361 4.648251,2.19343 0,0.15983 -0.86548,0.91214 -1.92329,1.6718 -1.057809,0.75966 -2.399632,1.88326 -2.981829,2.49689 -0.582197,0.61363 -1.505814,1.11913 -2.052482,1.12332 -0.869029,0.007 -0.993944,-0.21808 -0.993944,-1.78841 z M 177.1225,176.84952 c -1.3396,-1.33944 -1.90614,-3.05765 -1.98804,-6.0294 -0.1114,-4.04203 1.97496,-6.71143 4.70919,-6.02518 1.21674,0.30538 8.36958,8.2133 7.86872,8.69938 -0.28306,0.27471 -7.62376,3.6045 -9.18017,4.16418 -0.24297,0.0874 -0.87733,-0.27667 -1.4097,-0.80898 z M 54.355285,171.63143 c -3.702283,-1.6233 -4.003721,-1.84912 -3.811382,-2.85527 0.257929,-1.34927 8.313716,-9.01844 9.473079,-9.01844 1.159199,0 3.012231,1.30796 3.437421,2.42629 0.91222,2.39932 -2.549135,11.31267 -4.364516,11.23908 -0.3929,-0.0159 -2.523471,-0.82217 -4.734602,-1.79166 z m 132.322955,-4.22916 -2.89777,-3.36998 0.79167,-1.5528 c 0.43541,-0.85404 1.2749,-2.0643 1.86552,-2.68947 0.59063,-0.62517 1.29842,-1.98475 1.57287,-3.02128 0.42401,-1.60137 1.17362,-2.46444 4.98785,-5.74278 8.09343,-6.95634 8.13769,-7.00364 7.511,-8.02574 -0.9017,-1.47064 -0.64625,-2.69603 1.10438,-5.29779 2.29863,-3.41618 4.44997,-5.65976 5.73677,-5.98272 1.00405,-0.25201 1.06676,-0.41829 0.80377,-2.13119 -0.55148,-3.59189 -0.7683,-6.53155 -0.52793,-7.15793 0.19788,-0.51568 0.71662,-0.41245 2.80267,0.55774 1.96069,0.91188 3.23193,1.18914 5.43124,1.18455 3.08315,-0.006 4.68501,-0.63151 7.58083,-2.95812 1.17659,-0.94532 1.87805,-1.21651 2.57473,-0.99539 0.89884,0.28528 0.9416,0.4978 0.69743,3.46585 -0.42397,5.15354 -0.43861,5.96136 -0.23003,12.6943 l 0.19951,6.44009 -1.53391,1.40102 c -0.84365,0.77056 -1.80808,1.40101 -2.14317,1.40101 -0.81707,0 -11.28258,8.74221 -11.56292,9.65891 -0.44431,1.45293 -1.19957,2.20298 -6.10571,6.06357 -5.6885,4.47624 -6.54717,5.0243 -7.88603,5.03338 -0.52803,0.004 -1.52317,0.48034 -2.21142,1.05947 -1.10174,0.92705 -5.16434,3.38908 -5.52772,3.34993 -0.0747,-0.008 -1.43986,-1.53114 -3.03363,-3.38463 z M 48.420316,164.4184 c -0.355769,-0.3522 -2.369079,-1.79342 -4.474022,-3.20271 -2.906418,-1.94589 -5.138258,-4.01709 -9.276802,-8.60908 -2.997298,-3.32571 -6.718418,-7.74817 -8.269156,-9.82769 -1.550738,-2.07952 -3.2696,-4.26659 -3.819692,-4.86015 -0.550092,-0.59356 -1.081448,-1.32304 -1.18079,-1.62106 -0.09934,-0.29803 -0.865338,-0.53584 -1.702214,-0.52846 -2.578594,0.0227 -2.624454,-0.12352 -2.641627,-8.42399 -0.01185,-5.72593 -0.169201,-7.83474 -0.646975,-8.67052 -0.792438,-1.38622 -0.818333,-2.26871 -0.09557,-3.25714 0.532541,-0.7283 0.712976,-0.69983 2.964443,0.46775 3.12843,1.62237 7.616499,1.67856 11.894107,0.14893 2.769415,-0.99032 2.870036,-0.99549 4.307087,-0.22159 1.746929,0.94078 1.835102,1.7611 0.414332,3.85472 -0.581401,0.85675 -1.195173,2.37501 -1.363937,3.37391 l -0.306844,1.81619 1.967181,0.84324 c 3.070123,1.316 5.016553,4.76105 4.629601,8.19408 l -0.220116,1.95287 5.676002,6.20833 c 5.237585,5.7288 6.610384,7.74257 5.9769,8.76757 -0.133551,0.21609 0.94989,1.85625 2.407647,3.6448 l 2.650468,3.25192 -3.884931,3.64749 c -2.136712,2.00612 -3.991425,3.65727 -4.121584,3.66922 -0.13016,0.012 -0.527737,-0.26644 -0.883505,-0.61863 z m 82.115354,-1.45797 c -1.24113,-1.48742 -3.90955,-8.88083 -3.90263,-10.81303 0.0109,-3.0484 0.13737,-3.11359 5.34484,-2.75591 2.52331,0.17332 4.83632,0.51369 5.14002,0.75637 0.8381,0.66971 0.67336,4.10319 -0.39751,8.28461 -1.15692,4.51748 -1.7348,5.30103 -3.90958,5.30103 -1.01221,0 -1.87458,-0.29303 -2.27514,-0.77307 z m 1.50208,-16.34302 -4.52796,-0.14317 -0.0523,-5.17514 c -0.0288,-2.84632 -0.0439,-5.2787 -0.0337,-5.40529 0.0102,-0.12659 0.25245,-3.50599 0.53827,-7.50979 0.28582,-4.0038 0.55813,-7.32142 0.60514,-7.37249 0.047,-0.0511 2.49086,-0.2288 5.43078,-0.39495 l 5.34531,-0.30209 0.1598,2.36948 c 0.15375,2.27967 -1.17175,21.22899 -1.62766,23.26899 -0.12217,0.54667 -0.46683,0.95202 -0.7659,0.90078 -0.29908,-0.0512 -2.58136,-0.15759 -5.07174,-0.23633 z m -47.587943,-9.35963 c -3.194526,-0.22696 -3.575043,-0.35332 -4.079698,-1.35469 -0.306112,-0.60741 -0.554118,-2.5953 -0.551126,-4.41753 0.0051,-3.13539 0.08383,-3.39739 1.466664,-4.88361 l 1.461224,-1.57048 8.359974,0.2639 c 4.597986,0.14515 8.626872,0.42885 8.953085,0.63046 1.01152,0.62516 1.82821,3.2109 1.82821,5.78836 0,2.67094 -0.83756,4.78031 -2.184292,5.50106 -0.874761,0.46816 -8.946407,0.49066 -15.254041,0.0425 z m 91.431873,-8.40779 c -0.97185,-0.20947 -3.55611,-0.51404 -5.74278,-0.67682 -2.18668,-0.16278 -7.057,-0.67931 -10.82294,-1.14785 -3.76594,-0.46853 -7.54608,-0.93642 -8.40032,-1.03975 -2.26564,-0.27406 -8.03221,-1.50849 -8.3006,-1.77687 -0.27897,-0.27898 -0.30877,-1.80839 -0.18276,-9.3797 l 0.0971,-5.83362 1.87745,0.70686 c 1.24376,0.46828 3.44301,0.72259 6.51585,0.75347 4.32136,0.0434 4.83466,-0.0468 7.50979,-1.32025 3.96803,-1.8889 5.74278,-3.63112 5.74278,-5.63752 0,-1.77573 -0.29377,-1.66526 6.62629,-2.49175 2.06519,-0.24666 4.8019,-0.7878 6.08158,-1.202535 1.87195,-0.606693 2.58753,-0.65561 3.66136,-0.250286 1.21055,0.456931 1.63096,0.334845 4.52048,-1.312766 5.42678,-3.094363 5.76196,-3.211649 8.71016,-3.047836 l 2.73171,0.151784 -2.25059,1.042713 c -2.81204,1.302841 -2.86553,2.062894 -0.32089,4.560266 1.73317,1.70098 1.95312,2.15224 2.15976,4.43104 0.12653,1.39546 0.63798,3.33678 1.13655,4.31405 1.07977,2.11653 3.73436,4.5646 4.94967,4.5646 0.98838,0 1.08806,0.51858 0.36648,1.90649 -0.87184,1.67691 -5.05122,4.94729 -9.43777,7.38509 -1.45779,0.81016 -2.74991,1.60265 -2.87139,1.76108 -0.12149,0.15844 -1.532,1.01636 -3.13449,1.90649 -2.42928,1.34939 -3.45732,1.65133 -6.18453,1.81644 -1.79901,0.10892 -4.06608,0.0266 -5.03794,-0.18282 z M 55.452185,125.65838 c -2.171037,-0.41087 -4.352131,-0.8755 -4.846876,-1.03253 -0.494744,-0.15703 -3.553882,-2.74973 -6.798082,-5.76156 -5.346348,-4.96341 -5.93878,-5.6647 -6.328313,-7.4911 -0.388213,-1.82021 -0.285045,-2.35818 1.067058,-5.56414 1.007344,-2.38851 1.496824,-4.24941 1.496824,-5.69062 0,-2.051344 0.09322,-2.212613 2.214031,-3.830353 1.851107,-1.412009 2.189504,-1.88798 2.064395,-2.903665 -0.144637,-1.174226 -0.08023,-1.21482 1.927397,-1.21482 3.50465,0 4.668749,0.449944 7.566617,2.924625 2.529901,2.160449 2.980714,2.380117 4.781163,2.329727 1.223439,-0.03424 2.827912,0.326386 4.172307,0.937782 2.351451,1.069379 8.743174,2.192974 12.503849,2.198044 l 2.319201,0.003 0.0017,1.4357 c 0.0032,2.74238 2.659643,5.61816 5.833731,6.31531 0.677962,0.1489 1.232657,0.45831 1.232657,0.68757 0,0.22926 -0.71474,3.27201 -1.588313,6.76166 -1.465775,5.85532 -1.734267,6.51059 -3.480159,8.49355 l -1.891847,2.14873 H 68.5495 c -6.74211,0 -10.18874,-0.19658 -13.097315,-0.74703 z m 38.484412,-3.02982 c -3.522976,-0.16983 -7.124902,-0.33376 -8.004281,-0.36429 l -1.59887,-0.0555 1.809149,-7.28891 1.809149,-7.28892 4.869875,0.006 c 2.678431,0.003 5.283671,0.11714 5.789423,0.25295 0.812429,0.21814 1.061084,1.06464 2.134518,7.2665 1.18492,6.84591 1.20319,8.0175 0.12257,7.85839 -0.28937,-0.0426 -3.408557,-0.21641 -6.931533,-0.38624 z m 118.940823,-1.68089 c -1.27613,-0.44693 -2.70986,-1.16521 -3.18608,-1.59618 -2.051,-1.85613 -2.28268,-6.81736 -0.48308,-10.34485 0.51328,-1.00612 1.77269,-2.44096 2.79868,-3.18854 1.65996,-1.20949 2.13573,-1.34025 4.31896,-1.18697 4.35215,0.30556 6.69392,2.90991 7.27803,8.09409 0.40457,3.59077 -0.36825,5.37007 -3.12577,7.19658 -1.16536,0.7719 -2.43264,1.40617 -2.81617,1.40949 -0.38353,0.003 -1.09491,0.1012 -1.58083,0.21751 -0.48593,0.11632 -1.92761,-0.15419 -3.20374,-0.60113 z m 4.54907,-3.79898 c 0.6835,-0.6835 1.0843,-1.58902 1.0843,-2.44972 0,-1.57741 -1.6894,-3.53402 -3.0514,-3.53402 -2.70729,0 -4.56152,2.47733 -3.59703,4.8058 0.96776,2.33638 3.80503,2.93704 5.56413,1.17794 z m -95.34583,-1.83545 c -0.36564,-4.17405 -1.41352,-6.95114 -3.22205,-8.53905 -0.83002,-0.72877 -1.50913,-1.74175 -1.50913,-2.25107 0,-2.01178 2.24037,-4.843735 3.8319,-4.843735 0.95153,0 1.02738,0.180425 1.02738,2.443825 0,2.68717 0.85481,5.17089 2.31434,6.72449 1.11842,1.19051 4.61126,2.31725 7.18333,2.31725 2.55442,0 6.25401,-1.18062 6.98934,-2.23045 0.56511,-0.80681 0.63622,-0.66669 0.84693,1.66879 0.12651,1.40225 0.12921,3.59319 0.006,4.86875 l -0.22402,2.3192 -4.25088,0.002 c -2.33798,0.001 -6.1579,0.12859 -8.48869,0.28295 l -4.23782,0.28067 z m -98.382706,-0.95816 c -2.14717,-0.27016 -3.513213,-1.09401 -4.451969,-2.68495 -0.774625,-1.31278 -0.904016,-2.05276 -0.701729,-4.01321 0.136409,-1.32201 0.623948,-2.91232 1.083418,-3.53402 0.990639,-1.34042 3.666243,-2.90607 6.341735,-3.71092 l 1.925194,-0.579136 0.122708,1.712006 c 0.20385,2.84409 1.389958,5.08333 3.914966,7.39105 l 2.396226,2.19002 -1.008188,0.65946 c -2.575041,1.68436 -7.085492,2.8889 -9.622361,2.5697 z m 2.007966,-3.39093 c 2.189939,-2.18994 0.61524,-6.13099 -2.449718,-6.13099 -1.823412,0 -3.53402,1.80353 -3.53402,3.72599 0,1.77006 1.741273,3.4893 3.53402,3.4893 0.860698,0 1.766222,-0.4008 2.449718,-1.0843 z m 175.51198,-0.5517 c -1.73896,-1.86361 -2.2121,-3.05868 -2.36122,-5.96411 -0.11811,-2.30104 -0.32554,-2.843 -1.58581,-4.14327 -0.79747,-0.822777 -1.36413,-1.561734 -1.25926,-1.64213 1.07188,-0.821692 7.0999,-2.975375 7.55818,-2.700373 0.64678,0.388117 4.03911,3.191504 6.40872,5.296093 l 1.52945,1.35839 -1.59542,1.21689 c -1.84406,1.40653 -3.55337,3.93456 -4.1024,6.06736 -0.33071,1.28468 -0.58794,1.50216 -1.91082,1.61553 -1.20255,0.10305 -1.77459,-0.13254 -2.68142,-1.10438 z m -73.57192,-2.7641 c -1.87905,-0.79892 -2.50274,-2.43799 -2.40708,-6.32576 0.0485,-1.970929 0.14953,-3.64487 0.22452,-3.719864 0.075,-0.075 1.18961,0.06339 2.47691,0.307524 1.28731,0.244132 3.30737,0.443877 4.48903,0.443877 2.08348,0 2.14846,0.03932 2.14846,1.300209 0,0.760074 0.33827,1.540004 0.81427,1.877444 0.44784,0.31749 0.92876,1.07421 1.06871,1.68162 0.13995,0.60741 0.37942,1.50196 0.53215,1.98789 0.15656,0.49811 -0.005,1.2689 -0.37047,1.76701 -0.54552,0.74359 -1.23097,0.89999 -4.32824,0.9876 -2.02404,0.0573 -4.11576,-0.0811 -4.64826,-0.30755 z m 20.21763,-0.0303 c -3.8076,-0.79702 -6.08168,-1.79256 -7.54619,-3.30355 -0.81541,-0.84128 -1.37485,-1.63731 -1.2432,-1.76895 0.13164,-0.13165 2.16771,0.10232 4.52459,0.51993 4.04287,0.71634 4.63976,0.71681 10.55339,0.008 7.78857,-0.93319 7.3427,-0.94905 7.03363,0.25011 -0.77212,2.99576 -8.15558,5.37569 -13.32222,4.2942 z M 33.208082,106.43017 c -1.622699,-1.60747 -2.442088,-3.61832 -2.442088,-5.99309 0,-1.778547 0.218129,-2.140398 2.937798,-4.873465 1.615789,-1.623749 3.113088,-2.95227 3.327332,-2.95227 0.214244,0 1.091424,0.293268 1.949289,0.651707 l 1.559755,0.651708 -1.573944,1.381941 c -1.434407,1.259426 -1.573943,1.590699 -1.573943,3.736699 0,2.08079 -1.580832,7.01896 -2.650722,8.28027 -0.161126,0.18995 -0.851191,-0.20762 -1.533477,-0.8835 z m 69.121808,-0.18863 c -1.3363,-0.50533 -3.37388,-1.015 -4.527959,-1.13259 -1.972379,-0.20097 -2.098324,-0.29079 -2.098324,-1.49643 v -1.28262 h 7.288913 7.28892 v 2.42964 2.42964 l -2.76095,-0.0144 c -1.69091,-0.009 -3.7026,-0.37052 -5.1906,-0.93322 z m -19.269989,-1.01238 c -1.627972,-0.70854 -2.81763,-2.25393 -2.81763,-3.66018 0,-0.98738 0.09249,-1.00609 4.973891,-1.00609 4.49547,0 5.026963,0.085 5.525649,0.8835 0.303467,0.48593 0.947651,0.88351 1.43152,0.88351 0.683011,0 0.879761,0.29638 0.879761,1.32526 v 1.32525 h -3.507949 c -1.929371,0 -3.630807,0.19879 -3.780967,0.44176 -0.360084,0.58263 -1.032358,0.53464 -2.704275,-0.19301 z m 58.980229,-5.21293 -4.68589,-0.902756 -0.26892,-4.414168 c -0.14791,-2.427793 -0.38094,-4.526186 -0.51785,-4.663096 -0.13691,-0.136909 -5.26243,-1.058866 -11.39003,-2.048792 l -11.14111,-1.799867 -0.23344,-17.881785 c -0.12839,-9.834981 -0.27748,-17.931482 -0.33131,-17.992223 -0.0538,-0.06074 -0.39606,-0.110438 -0.7605,-0.110438 -0.44176,0 -0.66263,-0.441752 -0.66263,-1.325257 0,-1.17513 0.14867,-1.325258 1.31243,-1.325258 h 1.31244 l 0.12326,5.841667 0.12326,5.841667 3.22144,2.662069 3.22143,2.662068 -0.2667,1.993897 c -0.34355,2.568509 0.43753,10.119837 1.36982,13.243147 1.03874,3.479904 3.63955,6.001395 6.6003,6.399019 1.20921,0.162394 6.77069,0.96854 12.35886,1.791438 5.8102,0.855593 12.4215,1.551026 15.44166,1.624284 l 5.28135,0.128108 1.99903,-3.423582 c 1.97886,-3.389054 2.01804,-3.42425 3.885,-3.489845 1.0373,-0.03645 2.10298,-0.08614 2.36818,-0.110438 1.11455,-0.102109 2.46417,4.764105 2.77823,10.017303 0.1703,2.848441 0.15243,5.180478 -0.0397,5.182305 -0.19213,0.0018 -5.81601,0.696093 -12.49752,1.542811 -6.68151,0.846722 -12.54577,1.521712 -13.0317,1.499992 -0.48593,-0.0217 -2.99215,-0.44575 -5.56939,-0.94227 z M 95.151417,99.357582 93.494845,99.184299 V 75.730196 52.276094 l 5.370385,0.288763 c 2.95371,0.15882 6.92948,0.288763 8.83505,0.288763 h 3.46466 v 23.412882 23.412883 l -7.17847,-0.07426 c -3.94817,-0.04084 -7.923939,-0.152237 -8.835053,-0.247543 z M 106.08479,77.59176 c 0,-1.051148 -0.1597,-1.11994 -3.31314,-1.427165 -4.27564,-0.416555 -5.301033,-0.188712 -5.301033,1.177892 0,1.4042 0.445168,1.535884 4.859273,1.437417 3.68839,-0.08228 3.7549,-0.103325 3.7549,-1.188144 z m 0,-18.995357 c 0,-1.098123 -0.0257,-1.105096 -4.53586,-1.230361 -3.749767,-0.104146 -4.580968,-0.0084 -4.796105,0.552191 -0.143131,0.372993 -0.143131,0.983346 0,1.356339 0.215137,0.560638 1.046338,0.656337 4.796105,0.552191 4.51015,-0.125265 4.53586,-0.132238 4.53586,-1.23036 z M 77.260441,95.87516 c -1.354022,-2.122514 -1.30992,-4.2764 0.110438,-5.393654 1.27818,-1.005416 1.349187,-1.752703 0.451118,-4.747584 -0.479304,-1.598385 -1.008663,-2.378894 -1.987886,-2.931024 L 74.499488,82.050377 V 67.08725 l 0,-14.963128 1.022415,-0.960508 c 0.927863,-0.871682 1.494098,-0.960509 6.122879,-0.960509 2.805255,0 6.022758,0.126415 7.150006,0.280921 l 2.049542,0.280921 v 23.352838 23.352837 l -6.294973,-0.0187 -6.294973,-0.0187 z m 11.52466,-20.123819 c 0.335221,-0.534219 0.298956,-0.932328 -0.132258,-1.45191 -0.480223,-0.578633 -1.322186,-0.691591 -4.391908,-0.589219 -3.75613,0.125262 -3.799292,0.139667 -3.934842,1.313218 -0.124525,1.078095 0.01682,1.203407 1.546133,1.37079 3.54856,0.388387 6.434149,0.120035 6.912875,-0.642879 z M 87.672608,58.340567 c 0.320745,-0.100082 0.519534,-0.63013 0.441752,-1.177885 -0.133911,-0.943027 -0.338277,-0.995918 -3.848172,-0.995918 -2.978931,0 -3.797913,0.144521 -4.171032,0.736038 -0.336794,0.53393 -0.305248,0.927661 0.114886,1.433892 0.469038,0.565156 1.178166,0.649174 3.72928,0.441847 1.732561,-0.140804 3.41254,-0.337892 3.733286,-0.437974 z m 40.733022,36.859167 c -1.32951,-0.220327 -3.10578,-0.743757 -3.94726,-1.163177 -1.61485,-0.804889 -3.49601,-2.976579 -3.00431,-3.468285 0.26775,-0.267751 2.74305,0.0399 9.92106,1.233074 l 2.76095,0.458942 v 1.721662 c 0,1.704155 -0.0168,1.721137 -1.65657,1.67002 -0.91111,-0.0284 -2.74435,-0.231909 -4.07387,-0.452236 z m 46.70946,-9.614412 c -0.48248,-1.116447 -1.24166,-2.874755 -1.68706,-3.907351 l -0.80981,-1.877449 -3.6693,0.0068 c -2.01811,0.0037 -3.88508,0.152812 -4.14881,0.331314 -0.26373,0.178503 -1.32666,1.783793 -2.36208,3.567312 l -1.88257,3.242761 -4.29996,-0.150494 c -3.91044,-0.136861 -4.44684,-0.262612 -5.92125,-1.388149 -2.42959,-1.854706 -2.94707,-3.209432 -2.9359,-7.685896 0.0125,-5.019004 0.87881,-7.09219 3.58639,-8.582923 1.91873,-1.056407 1.92629,-1.07031 2.05646,-3.781133 l 0.13065,-2.720828 4.28687,0.0769 c 3.95627,0.07097 4.4467,-0.01705 6.35918,-1.141291 1.6501,-0.969997 2.3489,-1.780039 3.4299,-3.975859 3.49819,-7.105818 1.5562,-14.62346 -4.72911,-18.306898 -2.10053,-1.230991 -4.40892,-1.491841 -7.66215,-0.865826 l -1.58804,0.305583 -0.28179,-5.559939 c -0.61546,-12.143406 0.042,-16.100452 2.98075,-17.93956 1.24611,-0.779837 2.10414,-0.840506 10.19567,-0.720914 7.73854,0.114376 8.98485,0.232199 10.04209,0.949358 1.49782,1.016025 2.97421,3.354892 3.47368,5.502929 0.20843,0.896412 0.38722,11.284139 0.39731,23.083838 l 0.0183,21.453997 1.6894,0.745361 c 1.23732,0.545905 2.03308,1.365626 2.97372,3.063266 1.10249,1.989743 1.28276,2.787163 1.27332,5.632409 -0.0146,4.404478 -1.29697,7.077305 -4.40653,9.184607 -1.21482,0.823266 -2.34225,1.851403 -2.50541,2.284749 -0.17098,0.454131 -0.89608,0.875879 -1.71168,0.995583 -1.32537,0.194523 -1.47061,0.07906 -2.29228,-1.822222 z m -15.94667,-0.609861 c 2.30132,-1.290437 4.12879,-4.908335 4.113,-8.142579 -0.0124,-2.530242 -1.85449,-6.223606 -3.5237,-7.064828 -2.62204,-1.321411 -5.63884,-0.401472 -7.74689,2.362331 -2.44551,3.206224 -1.87128,9.027817 1.19269,12.091797 1.0534,1.053399 1.6947,1.317951 3.16459,1.305469 1.01391,-0.0086 2.27405,-0.257095 2.80031,-0.55219 z m 23.21799,-3.076614 c 1.66195,-1.518064 2.99295,-4.384055 2.99295,-6.44461 0,-0.679877 -0.30145,-2.251244 -0.6699,-3.491928 -1.5291,-5.149057 -6.00854,-5.974114 -9.26378,-1.706274 -1.48026,1.940725 -2.22056,6.177704 -1.52847,8.747937 1.17053,4.347031 5.32482,5.767018 8.4692,2.894875 z m -5.2156,-17.827801 c 0.38432,-0.147476 0.69876,-0.616952 0.69876,-1.04328 0,-1.156587 -2.53482,-6.526625 -3.18823,-6.754288 -0.92521,-0.322368 -1.67105,0.149956 -1.67105,1.058241 0,1.114952 2.16505,6.252469 2.81061,6.669387 0.61562,0.397583 0.5103,0.392127 1.34991,0.06994 z M 167.00647,31.081064 c 0.69574,-1.10297 -2.47277,-7.383109 -3.72498,-7.383109 -1.46535,0 -1.51922,1.232427 -0.18034,4.125624 1.9701,4.257201 2.82495,4.970238 3.90532,3.257485 z m 9.24287,-2.466147 c 1.79677,-3.403586 1.84054,-4.475209 0.18277,-4.475209 -0.82018,0 -1.30545,0.571897 -2.4435,2.879755 -1.51384,3.069908 -1.75924,4.420743 -0.86788,4.777288 1.04511,0.418044 1.44049,0.01593 3.12861,-3.181834 z M 136.92942,84.50553 c -7.78316,-1.215413 -9.05822,-1.528582 -10.05785,-2.470308 -1.84231,-1.735593 -2.53446,-4.794946 -2.75427,-12.174131 l -0.19739,-6.626287 -1.84952,-1.68416 -1.84952,-1.684161 2.42964,0.234496 c 1.3363,0.128973 5.6054,0.359458 9.48688,0.512189 l 7.05725,0.277693 2.97619,2.638595 c 2.36679,2.098313 3.22831,2.609648 4.20744,2.497229 1.1061,-0.126997 1.24506,-0.332206 1.36709,-2.018814 0.12681,-1.752624 0.22226,-1.877448 1.4357,-1.877448 1.25761,0 1.29953,0.06819 1.28982,2.098324 -0.009,1.921001 -0.13051,2.157511 -1.43569,2.7987 -4.18107,2.054004 -6.13493,11.856261 -3.42291,17.172262 0.50095,0.981942 0.75769,1.765624 0.57053,1.741517 -0.18717,-0.02411 -4.35119,-0.670171 -9.25339,-1.435696 z m 5.90299,-24.113548 -2.07005,-1.908103 0.002,-6.017835 c 0.001,-3.309809 0.12787,-7.913882 0.28136,-10.231273 l 0.27906,-4.213437 1.7327,-1.245489 c 0.95299,-0.685019 1.81394,-1.164251 1.91324,-1.064959 0.0993,0.09929 0.3124,1.302573 0.47358,2.673957 0.27709,2.357604 0.22125,2.565227 -1.0251,3.811579 -2.13064,2.130636 -2.94939,4.300845 -3.13575,8.311662 -0.19976,4.299162 0.64445,7.351304 2.61756,9.463532 2.06274,2.208171 1.22716,2.536785 -1.06888,0.420366 z m 10.07814,-0.651991 c -2.91556,-0.275739 -5.72239,-0.73837 -6.23739,-1.028068 -1.68449,-0.947561 -2.588,-3.527544 -2.59305,-7.404437 -0.004,-3.038102 0.16073,-3.815247 1.17361,-5.538106 0.64801,-1.102248 1.64196,-2.243572 2.20876,-2.536277 1.62305,-0.838168 8.33318,-2.300295 10.57238,-2.303705 3.52066,-0.0054 6.98822,3.184292 7.90396,7.27051 0.87242,3.892901 -0.94871,9.737856 -3.42449,10.990981 -1.91799,0.9708 -3.92908,1.085786 -9.60378,0.549102 z m 8.91672,-1.819103 c 2.96741,-1.944323 4.06118,-8.995942 1.89252,-12.201189 -3.98302,-5.88684 -11.47187,-2.584348 -11.47187,5.058956 0,5.980942 5.30972,9.939798 9.57935,7.142233 z m -34.53836,-0.321675 c -5.10224,-0.227934 -9.34626,-0.481021 -9.43116,-0.562416 -0.0849,-0.0814 -0.26371,-4.236526 -0.39736,-9.233624 l -0.243,-9.085633 h 10.44723 10.44722 v 9.718555 c 0,8.988125 -0.0581,9.713256 -0.77306,9.648049 -0.42519,-0.03878 -4.94763,-0.256997 -10.04987,-0.484931 z m -26.20009,-7.726756 c -6.578753,-0.121665 -7.185284,-0.199448 -6.980874,-0.89524 0.96629,-3.289158 1.622923,-6.571368 1.509885,-7.547224 -0.12778,-1.103122 -0.282558,-1.17339 -2.856485,-1.296809 -2.870275,-0.13763 -3.657715,-0.757387 -2.829133,-2.226676 0.347855,-0.616836 1.218579,-0.736792 5.412172,-0.745612 2.748693,-0.0058 6.602005,-0.181589 8.562925,-0.390685 l 3.5653,-0.380175 0.75843,5.470839 c 0.41714,3.008961 0.87246,6.116902 1.01183,6.906535 0.18787,1.064469 0.0979,1.410174 -0.34796,1.336992 -0.33075,-0.05429 -3.84349,-0.158661 -7.80609,-0.231945 z M 85.101548,46.104749 c 0,-0.796312 0.326903,-1.914561 0.726451,-2.484996 0.667376,-0.952812 0.956779,-1.018667 3.558763,-0.809804 1.557771,0.125043 2.929521,0.324561 3.048335,0.443375 0.118813,0.118814 -0.01531,1.134754 -0.298061,2.257645 L 91.62295,47.55259 h -3.260701 -3.260701 z m 63.170602,-9.686271 c 0,-3.548096 -0.4668,-5.21073 -1.46297,-5.21073 -0.30162,0 -2.11917,1.093337 -4.039,2.429639 l -3.49061,2.429638 h -10.13563 c -8.95819,0 -10.07176,-0.07696 -9.58584,-0.662456 0.36855,-0.444078 0.58042,-2.664834 0.64272,-6.736725 0.0777,-5.081193 0.25355,-6.486547 1.07532,-8.596013 1.10655,-2.840488 2.92459,-4.628177 5.03183,-4.947828 2.59141,-0.393095 26.02942,-0.746901 25.84926,-0.390205 -1.95263,3.865994 -1.89719,3.446839 -1.89719,14.34536 v 10.461356 l -0.99395,0.189883 c -0.96313,0.183998 -0.99394,0.08134 -0.99394,-3.311919 z"
     id="path2" /></svg>
