<?xml version="1.0" encoding="iso-8859-1"?>
<!-- Generator: Adobe Illustrator 22.0.1, SVG Export Plug-In . SVG Version: 6.00 Build 0)  -->
<svg version="1.1" xmlns="http://www.w3.org/2000/svg" xmlns:xlink="http://www.w3.org/1999/xlink" x="0px" y="0px"
	 viewBox="0 0 512 512" style="enable-background:new 0 0 512 512;" xml:space="preserve">
<g id="BULINE">
	<circle id="XMLID_109_" style="fill:#00BBF0;" cx="269.227" cy="255.975" r="256"/>
</g>
<g id="Icons">
	<g id="XMLID_120_">
		<path id="XMLID_1206_" style="fill:#356BBA;" d="M319.618,117.443c0-47.029-38.125-85.154-85.154-85.154
			s-85.154,38.125-85.154,85.154H319.618z"/>
		<path id="XMLID_1204_" style="fill:#CF8AFA;" d="M280.715,119.195c0-25.544-20.707-46.251-46.251-46.251
			c-25.544,0-46.251,20.707-46.251,46.251H280.715z"/>
		<path id="XMLID_1203_" style="fill:#F8C952;" d="M262.727,115.821c0-15.61-12.654-28.264-28.264-28.264
			S206.2,100.211,206.2,115.821H262.727z"/>
		<circle id="XMLID_1202_" style="fill:#FFFFFF;" cx="173.069" cy="99.927" r="10.705"/>
		<circle id="XMLID_1201_" style="fill:#FFFFFF;" cx="195.494" cy="64.16" r="10.705"/>
		<circle id="XMLID_1158_" style="fill:#FFFFFF;" cx="297.109" cy="99.927" r="10.705"/>
		<circle id="XMLID_987_" style="fill:#FFFFFF;" cx="274.684" cy="64.16" r="10.705"/>
		<circle id="XMLID_986_" style="fill:#FFFFFF;" cx="234.463" cy="50.493" r="10.705"/>
		<path id="XMLID_985_" style="fill:#366FCC;" d="M400.037,145.965v330.16c-38.28,22.8-83.02,35.9-130.81,35.9
			c-59.84,0-114.88-20.53-158.47-54.93c-4.44-3.51-8.77-7.16-12.96-10.94c-10.46-9.44-20.13-19.72-28.91-30.75v-269.45
			c0-8.89,3.72-16.92,9.69-22.6c0.36-0.35,0.73-0.68,1.1-1.01c0.38-0.33,0.77-0.65,1.16-0.96c0.39-0.3,0.79-0.6,1.2-0.9
			c0.41-0.29,0.83-0.57,1.25-0.84c0.63-0.41,1.28-0.79,1.94-1.15c0.45-0.24,0.89-0.47,1.35-0.69c0.23-0.11,0.46-0.22,0.69-0.32
			c0.92-0.42,1.86-0.79,2.83-1.12c0.73-0.24,1.46-0.46,2.21-0.66l0.75-0.18c0.51-0.12,1.02-0.22,1.53-0.31
			c1.79-0.32,3.64-0.49,5.53-0.49h268.69C386.057,114.725,400.037,128.715,400.037,145.965z"/>
		<path id="XMLID_984_" style="fill:#356BBA;" d="M400.037,420.215v55.91c-38.28,22.8-83.02,35.9-130.81,35.9
			c-59.84,0-114.88-20.53-158.47-54.93c-4.44-3.51-8.77-7.16-12.96-10.94c-10.46-9.44-20.13-19.72-28.91-30.75v-269.45
			c0-8.89,3.72-16.92,9.69-22.6c0.36-0.35,0.73-0.69,1.1-1.01c0.38-0.33,0.77-0.65,1.16-0.96s0.79-0.61,1.2-0.9
			c0.41-0.29,0.83-0.57,1.25-0.84c0.63-0.41,1.28-0.79,1.94-1.15c0.45-0.24,0.89-0.47,1.35-0.69c0.23-0.11,0.46-0.22,0.69-0.32
			c0.92-0.42,1.86-0.79,2.83-1.12c0.73-0.25,1.46-0.47,2.21-0.66l0.75-0.18c0.51-0.12,1.02-0.22,1.53-0.31
			c1.79-0.32,3.64-0.49,5.53-0.49h68.1v222.17c0,2.84,0.14,5.64,0.42,8.41c1.54,15.37,7.26,29.51,16.01,41.27h0.01
			c0.03,0.05,0.07,0.11,0.11,0.16c0.55,0.73,1.11,1.46,1.68,2.17c0.34,0.43,0.69,0.86,1.05,1.28c0.12,0.15,0.24,0.3,0.37,0.44
			c0.32,0.39,0.65,0.77,0.98,1.15c0.21,0.25,0.43,0.49,0.65,0.73c0.34,0.38,0.68,0.76,1.03,1.13c0.12,0.13,0.23,0.25,0.35,0.38
			c0.4,0.42,0.8,0.84,1.21,1.25c0.76,0.78,1.53,1.54,2.32,2.27c0.48,0.46,0.96,0.9,1.45,1.34c0.5,0.46,1.01,0.9,1.53,1.34
			c0.47,0.41,0.94,0.81,1.42,1.19c0.43,0.35,0.86,0.7,1.3,1.04c0.52,0.42,1.05,0.82,1.59,1.22c1.07,0.8,2.15,1.58,3.26,2.32
			c0.46,0.32,0.93,0.62,1.4,0.93c0.13,0.08,0.26,0.17,0.39,0.25c0.41,0.26,0.82,0.52,1.23,0.76c0.26,0.17,0.53,0.34,0.8,0.49
			c0.33,0.2,0.66,0.4,0.99,0.58c0.9,0.54,1.82,1.05,2.75,1.53c0.36,0.2,0.73,0.39,1.1,0.58c0.6,0.31,1.2,0.61,1.81,0.9
			c0.6,0.29,1.21,0.57,1.83,0.85c0.49,0.23,0.99,0.45,1.49,0.66c0.24,0.1,0.48,0.2,0.71,0.3c0.51,0.21,1.02,0.42,1.53,0.61
			c0.01,0.02,0.03,0.02,0.04,0.02c0.54,0.22,1.09,0.43,1.64,0.63c0.26,0.1,0.52,0.19,0.77,0.28c0.85,0.31,1.71,0.6,2.58,0.87
			c0.92,0.31,1.85,0.59,2.79,0.85c0.52,0.15,1.05,0.29,1.58,0.43c0.18,0.05,0.36,0.1,0.54,0.14c0.5,0.13,1,0.25,1.5,0.37
			c0.23,0.05,0.46,0.11,0.69,0.15c0.51,0.12,1.03,0.23,1.55,0.34c0.12,0.03,0.24,0.05,0.36,0.07c0.59,0.12,1.18,0.23,1.77,0.34
			c0.68,0.12,1.37,0.24,2.06,0.34c0.45,0.07,0.91,0.14,1.37,0.19c0.63,0.09,1.26,0.17,1.9,0.24c0.41,0.05,0.82,0.09,1.24,0.13
			c0.4,0.04,0.81,0.08,1.22,0.11c0.37,0.03,0.74,0.06,1.12,0.08c0.43,0.04,0.87,0.07,1.3,0.08c0.33,0.03,0.67,0.04,1.01,0.05
			c0.41,0.02,0.81,0.04,1.22,0.04c0.76,0.03,1.53,0.04,2.3,0.04H400.037z"/>
		<path id="XMLID_983_" style="fill:#32314B;" d="M280.019,229.936h-91.112h-82.176c-4.935,0-8.936,4.001-8.936,8.936v97.501
			c0,4.935,4.001,8.936,8.936,8.936h82.176h91.112h82.176c4.935,0,8.936-4.001,8.936-8.936v-97.501c0-4.935-4.001-8.936-8.936-8.936
			H280.019z"/>
		<path id="XMLID_982_" style="fill:#CF8AFA;" d="M359.626,202.953H109.301c-6.354,0-11.505-5.151-11.505-11.505v-43.84
			c0-6.354,5.151-11.505,11.505-11.505h250.326c6.354,0,11.505,5.151,11.505,11.505v43.84
			C371.131,197.802,365.98,202.953,359.626,202.953z"/>
		<path id="XMLID_981_" style="fill:#FFFFFF;" d="M172.654,335.766H114.05c-2.977,0-5.391-2.413-5.391-5.391v-85.505
			c0-2.977,2.413-5.391,5.391-5.391h58.604c2.977,0,5.391,2.413,5.391,5.391v85.505
			C178.044,333.353,175.631,335.766,172.654,335.766z"/>
		<path id="XMLID_977_" style="fill:#D1D1D1;" d="M178.044,310.539v19.838c0,2.979-2.415,5.393-5.393,5.393h-58.599
			c-2.979,0-5.393-2.415-5.393-5.393v-85.501c0-2.979,2.415-5.393,5.393-5.393h17.21v29.091c0,23.177,18.789,41.966,41.966,41.966
			H178.044z"/>
		<path id="XMLID_975_" style="fill:#FFFFFF;" d="M263.765,335.766h-58.604c-2.977,0-5.391-2.413-5.391-5.391v-85.505
			c0-2.977,2.413-5.391,5.391-5.391h58.604c2.977,0,5.391,2.413,5.391,5.391v85.505
			C269.156,333.353,266.743,335.766,263.765,335.766z"/>
		<path id="XMLID_974_" style="fill:#FFFFFF;" d="M354.877,335.766h-58.604c-2.977,0-5.391-2.413-5.391-5.391v-85.505
			c0-2.977,2.413-5.391,5.391-5.391h58.604c2.977,0,5.391,2.413,5.391,5.391v85.505
			C360.268,333.353,357.854,335.766,354.877,335.766z"/>
		<path id="XMLID_973_" style="fill:#D1D1D1;" d="M269.156,310.539v19.838c0,2.979-2.415,5.393-5.393,5.393h-58.599
			c-2.979,0-5.393-2.415-5.393-5.393v-85.501c0-2.979,2.415-5.393,5.393-5.393h17.21v29.091c0,23.177,18.789,41.966,41.966,41.966
			H269.156z"/>
		<path id="XMLID_972_" style="fill:#D1D1D1;" d="M360.268,310.539v19.838c0,2.979-2.415,5.393-5.393,5.393h-58.599
			c-2.979,0-5.393-2.415-5.393-5.393v-85.501c0-2.979,2.415-5.393,5.393-5.393h17.21v29.091c0,23.177,18.789,41.966,41.966,41.966
			H360.268z"/>
		<path id="XMLID_971_" style="fill:#B27CD8;" d="M352.167,192.172H116.76c-3.797,0-6.874-3.078-6.874-6.874v-32.24
			c0-3.797,3.078-6.874,6.874-6.874h235.407c3.797,0,6.874,3.078,6.874,6.874v32.24
			C359.041,189.094,355.963,192.172,352.167,192.172z"/>
		<path id="XMLID_970_" style="fill:#B27CD8;" d="M168.222,136.098v66.851h-58.925c-6.35,0-11.501-5.151-11.501-11.501V147.61
			c0-6.36,5.151-11.512,11.501-11.512H168.222z"/>
		<path id="XMLID_969_" style="fill:#9C72C1;" d="M168.222,146.18v45.994h-51.461c-3.795,0-6.875-3.08-6.875-6.875v-32.243
			c0-3.795,3.08-6.875,6.875-6.875H168.222z"/>
		<g id="XMLID_332_">
			<path id="XMLID_967_" style="fill:#F8C952;" d="M155.297,152.315c-0.43,0-1.06,0.02-1.91,0.06c-0.84,0.04-1.48,0.06-1.91,0.06
				c-0.45,0-1.13-0.02-2.02-0.06c-0.9-0.04-1.57-0.06-2.03-0.06s-0.69,0.12-0.69,0.38c0,0.07,0.02,0.18,0.05,0.32
				c0.51,4.05,0.77,9.75,0.77,17.1c0,3.17-0.2,5.45-0.6,6.84c-0.3,1.02-0.73,1.86-1.29,2.53c-0.29,0.34-0.96,0.98-2.02,1.91
				c-0.15,0.14-0.23,0.28-0.23,0.41c0,0.11,0.08,0.25,0.23,0.43c1.21,1.08,2.11,1.88,2.73,2.4c1.06,1.17,1.84,2.05,2.34,2.64
				c0.15,0.18,0.31,0.28,0.47,0.28c0.17,0,0.39-0.13,0.66-0.37c2.35-1.97,4.05-4.7,5.11-8.17c0.58-1.96,0.88-4.73,0.88-8.3
				c0-1.99,0.01-4.97,0.04-8.93c0.03-3.97,0.04-6.94,0.04-8.92C155.917,152.495,155.717,152.315,155.297,152.315z"/>
			<path id="XMLID_945_" style="fill:#F8C952;" d="M183.307,167.965c-3.39-8.79-5.43-13.94-6.13-15.44
				c-0.23-0.47-0.48-0.71-0.75-0.71c-0.37,0-0.93,0.03-1.69,0.08c-0.75,0.05-1.31,0.07-1.7,0.07c-0.4,0-1-0.03-1.81-0.1
				c-0.81-0.08-1.41-0.11-1.79-0.11c-0.23,0-0.43,0.27-0.6,0.81c-0.08,0.26-0.29,0.85-0.62,1.78c-0.87,2.4-2.56,7.02-5.09,13.86
				c-3.23,8.76-4.85,13.33-4.85,13.7c0,0.42,1.1,0.63,3.28,0.63c2.78,0,4.41-0.06,4.89-0.18c0.39-0.1,0.72-0.74,0.99-1.93
				c0.28-1.22,0.54-1.96,0.78-2.24c0.01-0.02,0.02-0.04,0.04-0.05c0.15-0.13,1.45-0.19,3.88-0.19c3.6,0,5.52,0.05,5.75,0.15
				c0.27,0.14,0.65,1.24,1.13,3.3c0.13,0.54,0.44,0.86,0.93,0.96c0.58,0.12,1.9,0.18,3.94,0.18c2.23,0,3.56-0.06,3.99-0.18
				c0.36-0.1,0.54-0.27,0.54-0.53C188.417,181.435,186.717,176.815,183.307,167.965z M175.567,170.435
				c-0.1,0.23-0.62,0.34-1.57,0.34c-1.01,0-1.74-0.01-2.18-0.04c-0.86-0.03-1.29-0.17-1.29-0.43c0-0.39,0.39-1.69,1.16-3.92
				c0.71-2.11,1.22-3.47,1.52-4.1c0.3,0.57,0.77,1.89,1.42,3.95c0.65,2.13,0.98,3.43,0.98,3.9
				C175.607,170.265,175.597,170.365,175.567,170.435z"/>
			<path id="XMLID_925_" style="fill:#F8C952;" d="M214.087,174.895c-1.01-1.53-1.64-2.42-1.86-2.68c-0.15-0.16-0.29-0.24-0.43-0.24
				c-0.07,0-0.43,0.28-1.05,0.82c-0.76,0.64-1.51,1.14-2.23,1.5c-1.12,0.54-2.3,0.82-3.54,0.82c-2.11,0-3.79-0.81-5.04-2.41
				c-1.16-1.47-1.74-3.29-1.74-5.47c0-2.14,0.58-3.94,1.74-5.4c1.25-1.57,2.93-2.36,5.04-2.36c1.21,0,2.38,0.29,3.51,0.86
				c0.75,0.38,1.51,0.92,2.28,1.61c0.64,0.57,1,0.85,1.07,0.85c0.17,0,0.31-0.05,0.43-0.17c0.26-0.21,0.88-1.19,1.88-2.94
				c0.99-1.74,1.49-2.75,1.49-3.02c0-0.24-0.15-0.52-0.43-0.84c-2.63-2.84-6.27-4.27-10.9-4.27c-4.26,0-7.77,1.59-10.53,4.77
				c-2.65,3.03-3.97,6.72-3.97,11.06c0,4.49,1.35,8.21,4.06,11.16c2.77,3.04,6.39,4.57,10.85,4.57c4.36,0,7.86-1.57,10.49-4.7
				c0.3-0.37,0.45-0.67,0.45-0.9C215.657,177.355,215.137,176.485,214.087,174.895z"/>
			<path id="XMLID_821_" style="fill:#F8C952;" d="M240.417,173.485c-2.63-4.3-3.95-6.44-3.96-6.44c0-0.17,0.24-0.39,0.71-0.66
				c2.3-1.35,4.34-4.72,6.11-10.13c0.6-1.83,0.9-2.98,0.9-3.45c0-0.33-0.17-0.49-0.51-0.49c-0.37,0-0.94,0.01-1.71,0.04
				c-0.76,0.03-1.34,0.04-1.72,0.04c-0.37,0-0.94-0.02-1.69-0.06c-0.75-0.05-1.31-0.07-1.68-0.07c-0.49,0-0.81,0.18-0.96,0.54
				c-1.05,2.7-1.8,4.75-2.26,6.13c-0.71,1.82-1.42,3.07-2.12,3.76c-0.94,0.93-2.27,1.39-3.97,1.39c-0.67,0-1.01-0.61-1.01-1.84
				c0-1.06,0.06-2.66,0.16-4.8c0.11-2.14,0.17-3.73,0.17-4.79c0-0.26-0.13-0.39-0.37-0.39c-0.44,0-1.11,0.02-2.02,0.07
				c-0.9,0.04-1.58,0.06-2.03,0.06s-1.11-0.02-2.01-0.06c-0.89-0.05-1.56-0.07-2-0.07c-0.3,0-0.45,0.16-0.45,0.47
				c0,1.66,0.07,4.15,0.21,7.48c0.14,3.32,0.21,5.82,0.21,7.47c0,1.56-0.07,3.9-0.22,7.02c-0.15,3.12-0.23,5.45-0.23,6.99
				c0,0.36,0.21,0.58,0.63,0.66c0.6,0.12,1.83,0.18,3.69,0.18c1.94,0,3.28-0.06,4.03-0.18c0.38-0.05,0.58-0.3,0.58-0.75
				c0-1.08-0.05-2.71-0.13-4.88c-0.09-2.16-0.13-3.78-0.13-4.85c0-0.25,0.77-0.65,2.32-1.2c0.32,0.31,1.34,2.01,3.04,5.1
				c1.03,1.92,2.07,3.83,3.11,5.75c0.19,0.33,0.34,0.53,0.46,0.61c0.12,0.08,0.38,0.15,0.76,0.22c0.82,0.15,2.11,0.22,3.86,0.22
				c1.83,0,2.96-0.07,3.39-0.22c0.53-0.18,0.8-0.58,0.8-1.2C244.377,180.345,243.057,177.785,240.417,173.485z"/>
			<path id="XMLID_341_" style="fill:#F8C952;" d="M269.367,155.545c-2.08-2.03-4.81-3.09-8.2-3.19c-2.06-0.06-4.21-0.09-6.46-0.09
				c-3.8,0-6.26,0.07-7.37,0.22c-0.46,0.05-0.68,0.22-0.65,0.49l0.03,0.3c0.38,4.95,0.57,9.67,0.57,14.16
				c0,1.58-0.02,3.97-0.07,7.15s-0.08,5.57-0.08,7.15c0,0.42,0.21,0.62,0.63,0.62c0.87,0,2.18,0.03,3.92,0.08
				c1.75,0.05,3.05,0.07,3.93,0.07c0.3,0,0.45-0.16,0.45-0.49c0-0.64-0.07-1.61-0.2-2.92c-0.12-1.3-0.19-2.28-0.19-2.93
				c0-0.53,0.31-0.8,0.92-0.8c0.57,0,1.44,0.03,2.59,0.1c1.15,0.06,2.01,0.1,2.58,0.1c3.42,0,6.1-1.14,8.04-3.41
				c1.82-2.15,2.73-4.95,2.73-8.41C272.537,160.365,271.477,157.635,269.367,155.545z M259.327,168.785c-2.58,0-3.86-0.14-3.86-0.43
				c0-0.44-0.02-1.1-0.06-1.96c-0.03-0.87-0.05-1.52-0.05-1.97c0-3.11,0.05-4.76,0.15-4.95c0.11-0.26,1.32-0.39,3.6-0.39
				c3.25,0,4.87,1.67,4.87,5C263.977,167.215,262.427,168.785,259.327,168.785z"/>
			<path id="XMLID_337_" style="fill:#F8C952;" d="M300.957,156.125c-2.93-3.1-6.59-4.65-10.98-4.65c-4.42,0-8.09,1.55-11.01,4.65
				c-2.86,3.03-4.29,6.77-4.29,11.22c0,4.43,1.43,8.16,4.29,11.18c2.92,3.08,6.59,4.63,11.01,4.63c4.44,0,8.12-1.53,11.02-4.59
				c2.85-3.02,4.27-6.76,4.27-11.22C305.267,162.925,303.827,159.185,300.957,156.125z M295.117,172.685
				c-1.41,1.62-3.13,2.43-5.14,2.43c-2.16,0-3.91-0.77-5.26-2.3c-1.27-1.46-1.91-3.28-1.91-5.47c0-2.04,0.68-3.85,2.04-5.43
				c1.4-1.63,3.11-2.44,5.13-2.44c2.11,0,3.85,0.79,5.21,2.36c1.3,1.5,1.95,3.32,1.95,5.47
				C297.137,169.345,296.467,171.145,295.117,172.685z"/>
			<path id="XMLID_335_" style="fill:#F8C952;" d="M329.217,157.275c-0.1-0.69-0.14-1.22-0.14-1.58c0-0.31,0.01-0.85,0.04-1.6
				c0.03-0.69,0.04-1.23,0.04-1.61c-0.01-0.25-0.04-0.39-0.08-0.42c-0.05-0.04-0.21-0.05-0.49-0.05c-0.02,0-0.96,0.07-2.81,0.21
				c-3.47,0.27-5.84,0.41-7.13,0.41c-4.53,0-7.95-0.15-10.27-0.45c-0.17-0.02-0.27-0.02-0.3-0.02c-0.24,0-0.41,0.53-0.51,1.6
				c-0.06,0.68-0.11,1.35-0.16,2.02c-0.02,0.21-0.15,0.82-0.38,1.82c-0.2,0.92-0.3,1.47-0.3,1.65c0,0.15,0.11,0.22,0.34,0.22
				c1.7,0,3.98-0.14,6.84-0.43c0.12,3.86,0.18,6.35,0.18,7.46c0,1.69-0.08,4.22-0.22,7.6c-0.14,3.37-0.21,5.9-0.21,7.59
				c0,0.37,0.2,0.59,0.6,0.66c0.74,0.12,2.04,0.18,3.88,0.18c1.66,0,2.92-0.06,3.77-0.18c0.36-0.04,0.56-0.07,0.6-0.1
				c0.13-0.07,0.2-0.25,0.2-0.52c0-1.68-0.07-4.22-0.21-7.61c-0.13-3.39-0.2-5.93-0.2-7.62c0-1.43,0.04-3.95,0.13-7.57
				c3.76,0.22,5.91,0.32,6.46,0.32c0.31,0,0.47-0.14,0.47-0.42C329.357,158.485,329.307,157.965,329.217,157.275z"/>
		</g>
		<g id="XMLID_319_">
			<path id="XMLID_320_" style="fill:#DD1B1B;" d="M164.767,262.395c-0.13-1.42-0.87-2.13-2.22-2.13c-2.52,0-4.88-0.01-7.1-0.02
				c-8.93-0.06-15.47-0.25-19.63-0.57c-0.51-0.03-2.03-0.17-4.56-0.45c-0.14-0.01-0.28-0.02-0.42-0.04
				c-2.02-0.22-3.67-0.32-4.94-0.32c-1.36,0-2.04,0.39-2.04,1.18c0,3.17-0.06,5.43-0.18,6.79c-0.06,0.6-0.25,1.83-0.59,3.67
				c-0.3,1.57-0.45,2.79-0.45,3.67c0,0.75,0.38,1.13,1.13,1.13c1.88,0,4.54-0.08,7.99-0.24c0.66-0.03,1.35-0.06,2.07-0.1
				c4.47-0.23,7.82-0.34,10.05-0.34c1.27,0,1.91,0.15,1.91,0.45c-0.03,0-1.44,2.39-4.22,7.16c-1.6,2.77-3.04,5.42-4.32,7.94
				c-1.34,2.62-2.51,5.11-3.51,7.46c-2.81,6.64-4.21,12.14-4.21,16.49c0,1.18,1.28,1.9,3.85,2.17c0.54,0.06,2.25,0.09,5.12,0.09
				c4.77,0,7.59-0.13,8.46-0.41c1.15-0.33,1.8-1.46,1.95-3.39c0.23-2.98,0.63-5.97,1.21-8.98c0.8-4.21,1.93-8.43,3.41-12.67
				c1.06-2.99,2.51-6.25,4.35-9.79c2.23-4.22,4.23-7.14,5.98-8.74c0.54-0.52,0.9-1,1.07-1.42c0.07-0.19,0.11-0.36,0.11-0.53
				C165.037,267.225,164.947,264.545,164.767,262.395z"/>
		</g>
		<g id="XMLID_316_">
			<path id="XMLID_317_" style="fill:#DD1B1B;" d="M255.387,262.395c-0.12-1.42-0.86-2.13-2.22-2.13c-12.62,0-21.53-0.19-26.72-0.59
				c-0.29-0.02-0.91-0.07-1.85-0.16c-0.61-0.06-1.35-0.14-2.22-0.23c-0.29-0.03-0.59-0.07-0.91-0.1c-2.03-0.22-3.67-0.32-4.94-0.32
				c-1.36,0-2.04,0.39-2.04,1.18c0,3.17-0.06,5.43-0.18,6.79c-0.06,0.6-0.26,1.83-0.59,3.67c-0.1,0.5-0.18,0.96-0.24,1.39
				c-0.14,0.92-0.21,1.68-0.21,2.28c0,0.75,0.38,1.13,1.13,1.13c1.97,0,4.78-0.08,8.47-0.26c0.51-0.03,1.04-0.05,1.59-0.08
				c4.46-0.23,7.82-0.34,10.05-0.34c1.27,0,1.9,0.15,1.9,0.45c-0.03,0-1.43,2.39-4.21,7.16c-1.51,2.61-2.87,5.11-4.1,7.5
				c-1.43,2.78-2.68,5.42-3.73,7.9c-2.81,6.64-4.22,12.14-4.22,16.49c0,1.18,1.29,1.9,3.85,2.17c0.55,0.06,2.25,0.09,5.12,0.09
				c4.77,0,7.6-0.13,8.47-0.41c1.15-0.33,1.8-1.46,1.95-3.39c0.23-3.08,0.65-6.17,1.25-9.28c0.8-4.11,1.92-8.23,3.37-12.37
				c1.06-2.99,2.51-6.25,4.35-9.79c2.23-4.22,4.22-7.14,5.98-8.74c0.78-0.75,1.17-1.4,1.17-1.95
				C255.657,267.225,255.567,264.545,255.387,262.395z"/>
		</g>
		<g id="XMLID_202_">
			<path id="XMLID_204_" style="fill:#DD1B1B;" d="M346.017,262.395c-0.12-1.42-0.86-2.13-2.22-2.13c-12.62,0-21.53-0.19-26.72-0.59
				c-0.45-0.02-1.65-0.14-3.59-0.34c-0.43-0.05-0.9-0.1-1.4-0.15c-2.02-0.22-3.67-0.32-4.93-0.32c-1.36,0-2.04,0.39-2.04,1.18
				c0,3.17-0.06,5.43-0.18,6.79c-0.06,0.6-0.26,1.83-0.59,3.67c-0.3,1.57-0.45,2.79-0.45,3.67c0,0.75,0.37,1.13,1.13,1.13
				c2.04,0,5.03-0.09,8.95-0.29c0.36-0.01,0.73-0.03,1.1-0.05c4.47-0.23,7.82-0.34,10.06-0.34c1.27,0,1.9,0.15,1.9,0.45
				c-0.03,0-1.43,2.39-4.21,7.16c-1.41,2.45-2.71,4.81-3.88,7.06c-1.53,2.95-2.85,5.72-3.96,8.34c-2.81,6.64-4.21,12.14-4.21,16.49
				c0,1.18,1.28,1.9,3.85,2.17c0.54,0.06,2.25,0.09,5.12,0.09c4.77,0,7.59-0.13,8.47-0.41c1.15-0.33,1.79-1.46,1.95-3.39
				c0.24-3.18,0.68-6.37,1.31-9.57c0.79-4.01,1.9-8.04,3.31-12.08c1.05-2.99,2.5-6.25,4.34-9.79c2.24-4.22,4.23-7.14,5.98-8.74
				c0.79-0.75,1.18-1.4,1.18-1.95C346.287,267.225,346.197,264.545,346.017,262.395z"/>
		</g>
		<path id="XMLID_201_" style="fill:#B27CD8;" d="M371.127,395.685v61.41h-260.37c-4.44-3.51-8.77-7.16-12.96-10.94v-50.46
			c0-5.04,4.08-9.12,9.1-9.12h255.12C367.047,386.575,371.127,390.655,371.127,395.685z"/>
		<path id="XMLID_200_" style="fill:#9C72C1;" d="M371.127,420.215v36.88h-260.37c-4.44-3.51-8.77-7.16-12.96-10.94v-50.46
			c0-5.04,4.08-9.12,9.1-9.12h77.75c0.04,0.05,0.08,0.11,0.12,0.16c0.55,0.73,1.11,1.46,1.68,2.17c0.34,0.43,0.69,0.86,1.05,1.28
			c0.12,0.15,0.24,0.3,0.37,0.44c0.32,0.39,0.65,0.77,0.98,1.15c0.21,0.25,0.43,0.49,0.65,0.73c0.34,0.38,0.68,0.76,1.03,1.13
			c0.12,0.13,0.23,0.25,0.35,0.38c0.4,0.42,0.8,0.84,1.21,1.25c0.76,0.78,1.53,1.54,2.32,2.27c0.48,0.46,0.96,0.9,1.45,1.34
			c0.5,0.46,1.01,0.91,1.53,1.34c0.47,0.41,0.94,0.81,1.42,1.19c0.43,0.36,0.86,0.71,1.3,1.04c0.52,0.42,1.05,0.83,1.59,1.22
			c1.07,0.8,2.15,1.58,3.26,2.32c0.46,0.32,0.93,0.63,1.4,0.93c0.13,0.08,0.26,0.17,0.39,0.25c0.41,0.26,0.82,0.52,1.23,0.76
			c0.26,0.17,0.53,0.34,0.8,0.49c0.32,0.2,0.65,0.4,0.99,0.58c0.9,0.54,1.82,1.05,2.75,1.53c0.36,0.2,0.73,0.39,1.1,0.58
			c0.6,0.31,1.2,0.61,1.81,0.9c0.61,0.3,1.22,0.58,1.83,0.85c0.49,0.23,0.99,0.45,1.49,0.66c0.24,0.1,0.48,0.2,0.71,0.3
			c0.51,0.22,1.02,0.42,1.53,0.61c0.01,0.02,0.03,0.02,0.04,0.02c0.54,0.23,1.09,0.44,1.64,0.63c0.26,0.1,0.52,0.19,0.77,0.28
			c0.85,0.31,1.71,0.61,2.58,0.87c0.92,0.31,1.85,0.59,2.79,0.85c0.52,0.15,1.05,0.3,1.58,0.43c0.18,0.05,0.36,0.1,0.54,0.14
			c0.5,0.13,1,0.25,1.5,0.37c0.23,0.05,0.46,0.11,0.69,0.15c0.52,0.13,1.03,0.24,1.55,0.34c0.12,0.03,0.24,0.05,0.36,0.07
			c0.59,0.12,1.18,0.24,1.77,0.34c0.68,0.12,1.37,0.24,2.06,0.34c0.45,0.07,0.91,0.14,1.37,0.19c0.63,0.09,1.26,0.17,1.9,0.24
			c0.41,0.05,0.82,0.09,1.24,0.13c0.4,0.04,0.81,0.08,1.22,0.11c0.37,0.04,0.74,0.06,1.12,0.08c0.43,0.04,0.86,0.07,1.3,0.08
			c0.33,0.03,0.67,0.04,1.01,0.05c0.4,0.02,0.81,0.04,1.22,0.04c0.76,0.03,1.53,0.04,2.3,0.04H371.127z"/>
		<path id="XMLID_199_" style="fill:#FE715A;" d="M400.042,361.347L400.042,361.347l0-110.035h0
			c16.547,0,29.962,13.414,29.962,29.962v50.112C430.003,347.933,416.589,361.347,400.042,361.347z"/>
		<path id="XMLID_198_" style="fill:#FFFFFF;" d="M458.373,199.975v84.232c0,4.916-3.985,8.901-8.901,8.901h-19.469v26.446h28.37
			h6.868c10.812,0,19.577-8.765,19.577-19.577v-6.868v-93.133H458.373z"/>
		<path id="XMLID_197_" style="fill:#D1D1D1;" d="M484.818,199.975v9.987H468.88v84.229c0,4.92-3.984,8.904-8.894,8.904h-19.47
			v16.453h-10.513v-26.44h19.47c4.91,0,8.894-3.984,8.894-8.904v-84.229H484.818z"/>
		<circle id="XMLID_196_" style="fill:#DD1B1B;" cx="470.101" cy="186.947" r="27.859"/>
		<path id="XMLID_195_" style="fill:#BF1B1B;" d="M478.774,213.421c-2.723,0.904-5.645,1.388-8.673,1.388
			c-15.391,0-27.859-12.479-27.859-27.859c0-15.391,12.468-27.859,27.859-27.859c3.028,0,5.95,0.484,8.673,1.388
			c-11.144,3.637-19.186,14.108-19.186,26.471C459.588,199.302,467.63,209.783,478.774,213.421z"/>
	</g>
</g>
</svg>
