<?xml version="1.0" encoding="iso-8859-1"?>
<!-- Generator: Adobe Illustrator 19.0.1, SVG Export Plug-In . SVG Version: 6.00 Build 0)  -->
<svg version="1.1" xmlns="http://www.w3.org/2000/svg" xmlns:xlink="http://www.w3.org/1999/xlink" x="0px" y="0px"
	 viewBox="0 0 128 128" style="enable-background:new 0 0 128 128;" xml:space="preserve">
<g id="_x32_6">
	<path id="_x32_6_1_" style="fill:#171617;" d="M63.733,0.19C34.02,0.19,9.935,24.288,9.935,54.016c0,1.577-0.056,2.984,0,4.392
		c0.394,15.934,0.281,40.144,15.588,46.507c9.679,3.997,9.623,9.571,13.562,18.411c2.87,6.306,16.713,4.116,24.648,4.116
		c7.935,0,21.835,2.19,24.704-4.116c3.939-8.84,3.883-14.414,13.562-18.411c15.363-6.362,15.194-30.573,15.588-46.507
		c0.056-1.464,0.056-3.041,0.056-4.392C117.644,24.288,93.502,0.19,63.733,0.19z M19.839,85.378
		c-0.506-11.655,9.623-19.875,18.965-19.763c11.48,0.113,16.038,2.703,16.038,13.062C54.898,99.228,22.54,98.778,19.839,85.378z
		 M66.547,112.065c-0.901-0.788-1.013-2.646-2.814-2.646c-1.744,0-1.801,1.858-2.758,2.646c-2.814,2.477-7.935-1.295-6.64-5.349
		c1.52-5.011,4.165-16.046,9.398-16.046c5.29,0,7.935,11.036,9.454,16.046C74.425,110.771,69.361,114.543,66.547,112.065z
		 M72.624,78.677c0-10.36,4.615-12.893,16.095-13.062c9.341-0.112,19.471,8.108,18.964,19.763
		C104.982,98.778,72.568,99.228,72.624,78.677z"/>
</g>
<g id="Layer_1">
</g>
</svg>
